#!OML:ASF F:\VICON\USERDATA\Patient Classification 1\PLAYGROUND\JustinFriday\JustinFriday.ASF
:FULLY-SPECIFIED
:DEGREES
2539
root 13.4708 27.6302 32.921 -795.032 -182.053 0.287913
lowerback 22.8686 -2.71035 -8.71792
upperback 1.86606 -3.77214 8.57267
thorax -9.33845 -0.829622 15.3687
lowerneck 16.4364 -0.135449 -20.181
upperneck 28.4168 3.77577 -0.918017
head 6.5376 2.63673 3.38289
rclavicle -4.77083e-014 6.52014e-014
rhumerus 47.8421 27.22 -65.3143
rradius 77.5809
rwrist 377.245
rhand -0.623807 -30.1696
rfingers 7.12502
rthumb 24.9927 -58.5549
lclavicle -4.77083e-014 6.52014e-014
lhumerus 31.3183 6.84241 78.7456
lradius 78.4797
lwrist -25.4867
lhand 7.39711 7.20376
lfingers 7.12502
lthumb 32.6536 34.2764
rfemur -16.1743 -12.7943 18.6679
rtibia 97.2957
rfoot 5.0894 -11.2149
rtoes 23.3872
lfemur -15.0614 13.4102 4.00899
ltibia 98.5637
lfoot 11.707 -17.4799
ltoes -20.1829
2540
root 13.4458 27.5428 32.5946 -794.387 -182.356 0.146115
lowerback 22.2635 -2.70799 -8.12603
upperback 1.37156 -3.71502 8.09647
thorax -9.79104 -0.74991 15.2063
lowerneck 16.7132 -0.186848 -19.9433
upperneck 28.5104 3.62854 -0.685215
head 6.52591 2.609 3.42325
rclavicle -6.04305e-014 3.97569e-014
rhumerus 48.9027 26.3895 -65.1861
rradius 76.7915
rwrist 377.142
rhand -0.71172 -29.8214
rfingers 7.12502
rthumb 24.9085 -58.2184
lclavicle -6.04305e-014 3.97569e-014
lhumerus 32.5859 6.69052 77.6405
lradius 77.7444
lwrist -25.0423
lhand 7.37367 7.61527
lfingers 7.12502
lthumb 32.6313 34.6926
rfemur -14.7521 -12.3415 18.6154
rtibia 96.3391
rfoot 5.6574 -12.0917
rtoes 25.907
lfemur -13.6193 13.2744 4.43658
ltibia 97.1412
lfoot 11.945 -17.5052
ltoes -21.2698
2541
root 13.4191 27.4461 32.272 -793.682 -182.442 0.205037
lowerback 21.7067 -2.69599 -7.73475
upperback 0.764675 -3.65534 8.05298
thorax -10.2399 -0.709275 14.8917
lowerneck 16.5429 -0.421691 -19.7829
upperneck 29.2551 3.51262 -0.562604
head 6.81701 2.58871 3.48032
rclavicle 3.18055e-014 -5.88403e-014
rhumerus 49.8979 25.5112 -65.1043
rradius 76.0461
rwrist 376.977
rhand -0.730845 -29.5362
rfingers 7.12502
rthumb 24.8902 -57.9357
lclavicle 3.18055e-014 -5.88403e-014
lhumerus 33.9539 6.41501 76.4475
lradius 76.8309
lwrist -24.4934
lhand 6.85196 7.77493
lfingers 7.12502
lthumb 32.1348 34.9538
rfemur -13.3667 -12.0901 18.369
rtibia 95.2834
rfoot 6.2966 -13.0169
rtoes 28.5847
lfemur -12.3718 12.9022 4.58736
ltibia 95.7222
lfoot 12.193 -17.7674
ltoes -23.5393
2542
root 13.3903 27.3445 31.9475 -792.691 -182.337 0.427723
lowerback 20.9991 -2.6806 -7.45487
upperback 0.0340211 -3.59017 8.11454
thorax -10.7301 -0.6449 14.7736
lowerneck 16.6475 -0.702556 -19.7118
upperneck 29.7886 3.30987 -0.642875
head 7.0184 2.53679 3.47007
rclavicle 7.95139e-014 -2.14687e-014
rhumerus 50.8763 24.6442 -64.6636
rradius 75.2893
rwrist 376.576
rhand -0.823823 -29.3552
rfingers 7.12502
rthumb 24.8011 -57.767
lclavicle 7.95139e-014 -2.14687e-014
lhumerus 35.3086 6.20708 75.7964
lradius 76.0158
lwrist -24.2023
lhand 6.29587 7.57991
lfingers 7.12502
lthumb 31.6052 34.8642
rfemur -12.2457 -12.1252 18.0269
rtibia 94.1542
rfoot 7.78326 -13.5852
rtoes 25.6689
lfemur -11.552 12.308 4.32978
ltibia 94.2726
lfoot 12.8451 -17.9043
ltoes -24.0232
2543
root 13.3665 27.2421 31.6241 -791.616 -182.157 0.55072
lowerback 20.1137 -2.65798 -7.23127
upperback -0.619428 -3.54146 8.0709
thorax -11.0244 -0.615105 14.5365
lowerneck 17.1432 -0.88953 -19.4268
upperneck 29.7025 3.04856 -0.82756
head 6.94134 2.47144 3.3519
rclavicle 2.8625e-014 -5.80451e-014
rhumerus 52.0353 23.6981 -64.3093
rradius 74.4232
rwrist 376.251
rhand -1.07813 -29.0502
rfingers 7.12502
rthumb 24.5573 -57.4953
lclavicle 2.8625e-014 -5.80451e-014
lhumerus 36.8295 6.09772 75.3063
lradius 75.2857
lwrist -24.0472
lhand 6.06256 7.5237
lfingers 7.12502
lthumb 31.3829 34.8515
rfemur -11.1754 -12.2108 17.5848
rtibia 92.8988
rfoot 9.8748 -13.8095
rtoes 25.3646
lfemur -10.7123 11.7707 3.90081
ltibia 92.7011
lfoot 14.0349 -17.2584
ltoes -21.1261
2544
root 13.3431 27.1121 31.2881 -790.881 -182.094 0.582404
lowerback 19.4818 -2.63545 -6.94604
upperback -1.05788 -3.48484 7.94574
thorax -11.2179 -0.601457 14.1655
lowerneck 17.4534 -0.990732 -19.1946
upperneck 29.6236 2.87888 -0.878101
head 6.87849 2.42913 3.28993
rclavicle 0 -2.70347e-014
rhumerus 53.4279 22.6884 -64.2393
rradius 73.4759
rwrist 376.132
rhand -1.5427 -28.6621
rfingers 7.12502
rthumb 24.1119 -57.167
lclavicle 0 -2.70347e-014
lhumerus 38.6182 6.11299 74.5985
lradius 74.5173
lwrist -23.7309
lhand 6.15633 7.65339
lfingers 7.12502
lthumb 31.4723 34.9638
rfemur -9.78587 -12.0959 17.16
rtibia 91.6259
rfoot 11.2357 -14.3459
rtoes 25.3069
lfemur -9.50365 11.3071 3.72855
ltibia 91.1477
lfoot 15.0069 -16.7127
ltoes -18.8166
2545
root 13.325 27.0081 30.9766 -790.23 -182.051 0.410169
lowerback 19.0466 -2.44683 -6.90277
upperback -1.46334 -3.26264 7.86649
thorax -11.5134 -0.482493 13.9814
lowerneck 17.3854 -1.20603 -19.0759
upperneck 29.909 2.67498 -0.894503
head 7.00416 2.34802 3.28059
rclavicle 4.92986e-014 -9.22361e-014
rhumerus 54.7829 21.5945 -64.1282
rradius 72.6792
rwrist 376.088
rhand -1.69191 -28.5143
rfingers 7.12502
rthumb 23.9689 -57.0381
lclavicle 4.92986e-014 -9.22361e-014
lhumerus 40.5837 6.13209 74.07
lradius 73.6223
lwrist -23.3804
lhand 6.1879 7.78526
lfingers 7.12502
lthumb 31.5024 35.0898
rfemur -8.07723 -11.4881 16.8912
rtibia 89.9828
rfoot 12.1858 -15.348
rtoes 25.6695
lfemur -7.78877 10.9916 3.50387
ltibia 89.1969
lfoot 13.7346 -19.3428
ltoes -25.2858
2546
root 13.3079 26.8971 30.6637 -789.549 -181.975 0.0380464
lowerback 18.8471 -2.25728 -6.88718
upperback -1.99049 -3.10162 7.58367
thorax -12.0778 -0.38349 13.6204
lowerneck 17.2934 -1.36248 -18.644
upperneck 30.2242 2.55456 -0.861918
head 7.12247 2.331 3.23764
rclavicle -1.74931e-014 5.24792e-014
rhumerus 55.9799 20.5717 -64.4676
rradius 71.8997
rwrist 376.113
rhand -1.45702 -28.5398
rfingers 7.12502
rthumb 24.1941 -57.0337
lclavicle -1.74931e-014 5.24792e-014
lhumerus 42.3487 6.11568 73.0421
lradius 72.7034
lwrist -22.8899
lhand 6.00392 7.97337
lfingers 7.12502
lthumb 31.3271 35.312
rfemur -6.52663 -10.5218 16.6816
rtibia 88.2978
rfoot 13.0537 -16.4415
rtoes 26.1918
lfemur -5.95956 10.7492 3.04447
ltibia 87.103
lfoot 14.6995 -19.4313
ltoes -26.2985
2547
root 13.2862 26.7821 30.3467 -788.723 -182.372 -0.114129
lowerback 18.2089 -2.09329 -6.46113
upperback -2.31522 -2.77527 7.5985
thorax -12.1973 -0.246891 13.2588
lowerneck 17.5256 -1.49208 -18.4458
upperneck 29.9125 2.21632 -0.730808
head 6.988 2.18145 3.23089
rclavicle 3.65764e-014 1.59028e-015
rhumerus 57.6363 19.2847 -63.9915
rradius 71.0116
rwrist 375.848
rhand -1.8802 -28.4929
rfingers 7.12502
rthumb 23.7883 -57.0403
lclavicle 3.65764e-014 1.59028e-015
lhumerus 44.4391 6.16276 72.4651
lradius 71.84
lwrist -22.5817
lhand 5.85542 8.08073
lfingers 7.12502
lthumb 31.1855 35.4467
rfemur -5.07173 -9.62984 17.0581
rtibia 86.4472
rfoot 13.8027 -17.5323
rtoes 25.6604
lfemur -4.30638 10.5183 3.15234
ltibia 84.934
lfoot 18.4644 -16.0068
ltoes -20.3357
2548
root 13.2618 26.6654 30.0319 -787.557 -182.462 -0.122504
lowerback 17.1485 -2.18616 -5.83417
upperback -2.60751 -2.80954 7.28689
thorax -11.9483 -0.359058 12.4251
lowerneck 17.5056 -1.53216 -18.0974
upperneck 29.6224 1.95854 -0.379265
head 6.87332 2.0544 3.27635
rclavicle 1.59028e-015 -2.70347e-014
rhumerus 59.5778 18.0216 -63.7263
rradius 70.11
rwrist 375.079
rhand -2.98765 -28.4701
rfingers 7.12502
rthumb 22.7258 -57.1518
lclavicle 1.59028e-015 -2.70347e-014
lhumerus 46.7842 6.49231 71.4288
lradius 70.8824
lwrist -22.4822
lhand 5.75876 7.95499
lfingers 7.12502
lthumb 31.0934 35.3386
rfemur -3.83354 -9.05929 17.093
rtibia 84.5134
rfoot 13.9605 -18.887
rtoes 26.5986
lfemur -3.15351 10.1666 2.86513
ltibia 82.7462
lfoot 20.0806 -14.8237
ltoes -18.7391
